<svg width="33" height="26" viewBox="0 0 33 26" fill="none" xmlns="http://www.w3.org/2000/svg">
<rect x="7.8" y="4.8" width="17.4" height="17.4" rx="5.2" stroke="#16191E" stroke-width="1.6"/>
<path d="M14.0802 13.8087C13.4384 13.1669 13.0778 12.2965 13.0778 11.3889C13.0778 10.4812 13.4384 9.61077 14.0802 8.96898C14.722 8.32718 15.5924 7.96663 16.5001 7.96663C17.4077 7.96663 18.2781 8.32718 18.9199 8.96898C19.5617 9.61077 19.9223 10.4812 19.9223 11.3889C19.9223 12.2965 19.5617 13.1669 18.9199 13.8087C18.2781 14.4505 17.4077 14.8111 16.5001 14.8111C15.5924 14.8111 14.722 14.4505 14.0802 13.8087Z" stroke="#16191E" stroke-width="1.6"/>
<path d="M22.8332 20.8889C22.8332 17.6502 19.9976 15.6111 16.4998 15.6111C13.002 15.6111 10.1665 17.6502 10.1665 20.8889" stroke="#16191E" stroke-width="1.6"/>
</svg>
