<svg width="35" height="31" viewBox="0 0 35 31" fill="none" xmlns="http://www.w3.org/2000/svg">
<path d="M17 14.25C17 14.25 18.2204 10 22.0847 10C25.0949 10 27 12.4366 27 15.3232C27 19.3154 23.0312 21.9589 17 27C10.9689 21.9589 7 19.3154 7 15.3232C7 12.4366 8.90508 10 11.9153 10C15.7797 10 17 14.25 17 14.25Z" stroke="#16191E" stroke-width="1.6" stroke-miterlimit="10" stroke-linecap="round" stroke-linejoin="round"/>
<circle cx="27.5" cy="8" r="7.5" fill="#E52B0E"/>
<path d="M25.3955 6.725C25.4315 5.429 26.2055 4.637 27.4475 4.637C28.6085 4.637 29.4005 5.321 29.4005 6.329C29.4005 6.941 29.0585 7.436 28.5185 7.616C29.2295 7.796 29.6615 8.345 29.6615 9.101C29.6615 10.307 28.7435 11.135 27.4295 11.135C26.1155 11.135 25.2425 10.307 25.2425 9.065V8.93H26.2325C26.2595 9.812 26.6645 10.253 27.4565 10.253C28.1495 10.253 28.5905 9.821 28.5905 9.128C28.5905 8.354 28.0055 8.075 27.3305 8.075C27.2135 8.075 27.1595 8.075 27.0065 8.084V7.31H27.0965C27.7265 7.31 28.3925 7.211 28.3925 6.401C28.3925 5.852 28.0145 5.483 27.4295 5.483C26.7725 5.483 26.4035 5.915 26.3765 6.725H25.3955Z" fill="white"/>
</svg>
