<svg width="35" height="31" viewBox="0 0 35 31" fill="none" xmlns="http://www.w3.org/2000/svg">
<path d="M6 10.6111H8.45649C9.30294 10.6111 10.0577 11.144 10.3411 11.9416L10.8732 13.4394M10.8732 13.4394L13.6717 21.3167C14.0207 22.2989 15.0653 22.8484 16.0723 22.5795L25.516 20.0579C26.3912 19.8242 27 19.0314 27 18.1256V15.4394C27 14.3348 26.1046 13.4394 25 13.4394H10.8732Z" stroke="#16191E" stroke-width="1.6"/>
<path d="M10.0888 25.3889C10.0888 26.5671 11.0439 27.5222 12.2221 27.5222C13.4003 27.5222 14.3554 26.5671 14.3554 25.3889C14.3554 24.2107 13.4003 23.2556 12.2221 23.2556C11.0439 23.2556 10.0888 24.2107 10.0888 25.3889ZM11.4443 25.7889H12.2221V24.9889H11.4443V25.7889Z" fill="#16191E"/>
<path d="M20.2001 25.3889C20.2001 26.5671 21.1552 27.5222 22.3334 27.5222C23.5116 27.5222 24.4668 26.5671 24.4668 25.3889C24.4668 24.2107 23.5116 23.2556 22.3334 23.2556C21.1552 23.2556 20.2001 24.2107 20.2001 25.3889ZM21.5557 25.7889H22.3334V24.9889H21.5557V25.7889Z" fill="#16191E"/>
<circle cx="27.5" cy="8" r="7.5" fill="#E52B0E"/>
<path d="M25.3955 6.725C25.4315 5.429 26.2055 4.637 27.4475 4.637C28.6085 4.637 29.4005 5.321 29.4005 6.329C29.4005 6.941 29.0585 7.436 28.5185 7.616C29.2295 7.796 29.6615 8.345 29.6615 9.101C29.6615 10.307 28.7435 11.135 27.4295 11.135C26.1155 11.135 25.2425 10.307 25.2425 9.065V8.93H26.2325C26.2595 9.812 26.6645 10.253 27.4565 10.253C28.1495 10.253 28.5905 9.821 28.5905 9.128C28.5905 8.354 28.0055 8.075 27.3305 8.075C27.2135 8.075 27.1595 8.075 27.0065 8.084V7.31H27.0965C27.7265 7.31 28.3925 7.211 28.3925 6.401C28.3925 5.852 28.0145 5.483 27.4295 5.483C26.7725 5.483 26.4035 5.915 26.3765 6.725H25.3955Z" fill="white"/>
</svg>
