<svg width="159" height="40" viewBox="0 0 159 40" fill="none" xmlns="http://www.w3.org/2000/svg">
<g clip-path="url(#clip0_3966_3174)">
<path fill-rule="evenodd" clip-rule="evenodd" d="M20.4282 7.75854C23.8923 7.75854 27.0288 9.1374 29.2928 11.3675L24.6805 15.8569L20.8823 12.0505L11.9722 20.1101L14.6968 20.1036L14.7454 26.9526L18.9329 27.0108V24.2046C18.9329 23.5863 19.5556 23.719 20.879 23.7352H20.8887H20.8985C22.2219 23.7158 22.8446 23.5863 22.8446 24.2046V27.0108L26.951 26.9526L28.8874 29.0176C26.6623 31.018 23.6944 32.2415 20.4346 32.2415C13.5291 32.2415 7.93066 26.7616 7.93066 20C7.93066 13.2384 13.5226 7.75854 20.4282 7.75854ZM14.6708 16.1126L16.8862 14.2871L16.9121 13.2999H14.6676V16.1126H14.6708Z" fill="#2B2C86"/>
<path fill-rule="evenodd" clip-rule="evenodd" d="M20.428 0C26.0881 0 31.2097 2.25279 34.9106 5.89416L32.1633 8.57097C29.1662 5.61903 25.0144 3.79349 20.428 3.79349C11.2844 3.79349 3.87283 11.0503 3.87283 20C3.87283 28.9497 11.2844 36.2065 20.428 36.2065C24.7452 36.2065 28.6732 34.5881 31.6216 31.9404L34.2424 34.7338C30.6064 38.0029 25.7572 40 20.4313 40C9.14688 40 0 31.0471 0 20C0 8.9529 9.14688 0 20.428 0Z" fill="#E52B0E"/>
<path fill-rule="evenodd" clip-rule="evenodd" d="M42.3094 22.6315C40.5741 22.6315 39.0983 22.0359 37.8787 20.8416C36.6591 19.6472 36.0493 18.1842 36.0493 16.4493C36.0493 14.7144 36.6591 13.2481 37.8787 12.0408C39.0983 10.8367 40.5741 10.2314 42.3094 10.2314C42.637 10.2314 42.9419 10.2476 43.2241 10.2832C43.5063 10.3188 43.7852 10.3803 44.0674 10.4742L44.2945 10.1473L46.2471 11.2672L44.927 13.7822C44.0707 13.0118 43.1982 12.6299 42.3062 12.6299C41.3201 12.6299 40.4898 12.9989 39.8086 13.7304C39.1275 14.4651 38.7901 15.3714 38.7901 16.4525C38.7901 17.5336 39.1307 18.4043 39.8086 19.139C40.4898 19.8738 41.3201 20.2395 42.3062 20.2395C43.3506 20.2395 44.1939 19.8738 44.8394 19.139L45.8773 21.5666C44.8459 22.2787 43.6555 22.6347 42.3062 22.6347L42.3094 22.6315ZM48.9393 22.3046V12.973H46.5131L47.3402 10.581H52.0369L52.3353 10.0469H54.7096L53.636 12.973H51.5244V22.3046H48.9393ZM55.6567 22.3046H58.2418V18.7571H59.7371C60.7913 18.7571 61.6833 18.3395 62.4098 17.5012C63.1364 16.6629 63.4997 15.6465 63.4997 14.4522C63.4997 13.384 63.1202 12.4713 62.3579 11.7139C61.5957 10.9565 60.7037 10.5778 59.6852 10.5778H55.4102L54.5312 12.9697H55.6567V22.3013V22.3046ZM58.2418 12.973H59.0333C59.5263 12.973 59.935 13.138 60.2658 13.4714C60.5934 13.8048 60.7589 14.2127 60.7589 14.6949C60.7589 15.1772 60.5902 15.5624 60.2496 15.8828C59.909 16.2033 59.5004 16.3651 59.0171 16.3651H58.2418V12.973ZM70.5545 22.6315C68.8191 22.6315 67.3433 22.0359 66.1237 20.8416C64.9042 19.6472 64.2944 18.1842 64.2944 16.4493C64.2944 14.7144 64.9042 13.274 66.1237 12.057C67.3433 10.8399 68.8191 10.2314 70.5545 10.2314C72.2898 10.2314 73.7656 10.8335 74.9852 12.0408C76.2048 13.2481 76.8146 14.7144 76.8146 16.4493C76.8146 18.1842 76.2048 19.6181 74.9852 20.8221C73.7656 22.0262 72.2898 22.6315 70.5545 22.6315ZM70.5545 12.6266C69.5814 12.6266 68.751 12.9956 68.0666 13.7368C67.3822 14.4781 67.0384 15.3811 67.0384 16.4493C67.0384 17.5174 67.379 18.401 68.0601 19.1358C68.7413 19.8705 69.5717 20.2363 70.5577 20.2363C71.5437 20.2363 72.3741 19.8705 73.0552 19.1358C73.7364 18.401 74.077 17.5044 74.077 16.4493C74.077 15.3941 73.7332 14.4781 73.0488 13.7368C72.3644 12.9956 71.534 12.6266 70.5609 12.6266H70.5545ZM84.4142 10.5778H86.9994V22.3046H84.4142V15.899L80.9663 22.3046H78.3812V12.973H77.2557L78.1347 10.581H80.9663V17.1419L84.4142 10.581V10.5778ZM79.737 8.56449L80.6874 7.59993C80.9339 7.88801 81.2291 8.10163 81.5761 8.24729C81.9232 8.38971 82.2767 8.46091 82.64 8.46091C83.425 8.46091 84.0704 8.17284 84.5732 7.59993L85.5917 8.6001L85.5203 8.71986C84.7127 9.58084 83.7493 10.0113 82.6368 10.0113C82.0627 10.0113 81.5275 9.8948 81.0377 9.65852C80.5447 9.42224 80.11 9.05972 79.737 8.56449ZM94.758 22.6315C93.0227 22.6315 91.5469 22.0359 90.3273 20.8416C89.1077 19.6472 88.4979 18.1842 88.4979 16.4493C88.4979 14.7144 89.1077 13.274 90.3273 12.057C91.5469 10.8399 93.0227 10.2314 94.758 10.2314C96.4933 10.2314 97.9691 10.8335 99.1887 12.0408C100.408 13.2449 101.018 14.7144 101.018 16.4493C101.018 18.1842 100.408 19.6181 99.1887 20.8221C97.9691 22.0262 96.4933 22.6315 94.758 22.6315ZM94.758 12.6266C93.7849 12.6266 92.9546 12.9956 92.2702 13.7368C91.5858 14.4781 91.242 15.3811 91.242 16.4493C91.242 17.5174 91.5826 18.401 92.2637 19.1358C92.9449 19.8705 93.7752 20.2363 94.7612 20.2363C95.7473 20.2363 96.5777 19.8705 97.2588 19.1358C97.94 18.401 98.2773 17.5044 98.2773 16.4493C98.2773 15.3941 97.9335 14.4781 97.2491 13.7368C96.5647 12.9956 95.7343 12.6266 94.7612 12.6266H94.758ZM102.338 10.5778H110.921V22.3046H108.336V12.973H105.17V22.3046H102.585V12.973H101.459L102.338 10.581V10.5778ZM114.404 22.3046V12.973H111.978L112.805 10.581H117.502L117.8 10.0469H120.175L119.101 12.973H116.989V22.3046H114.404ZM122.426 22.3046H125.011V12.973H127.122L128.196 10.0469H125.822L125.523 10.581H120.827L119.999 12.973H122.426V22.3046ZM134.719 22.6315C132.984 22.6315 131.508 22.0359 130.288 20.8416C129.069 19.6472 128.459 18.1842 128.459 16.4493C128.459 14.7144 129.069 13.274 130.288 12.057C131.508 10.8399 132.984 10.2314 134.719 10.2314C136.454 10.2314 137.93 10.8335 139.15 12.0408C140.369 13.2481 140.979 14.7144 140.979 16.4493C140.979 18.1842 140.369 19.6181 139.15 20.8221C137.93 22.0262 136.454 22.6315 134.719 22.6315ZM134.719 12.6266C133.746 12.6266 132.915 12.9956 132.231 13.7368C131.547 14.4781 131.203 15.3811 131.203 16.4493C131.203 17.5174 131.543 18.401 132.221 19.1358C132.902 19.8705 133.733 20.2363 134.719 20.2363C135.705 20.2363 136.535 19.8705 137.216 19.1358C137.898 18.401 138.235 17.5044 138.235 16.4493C138.235 15.3941 137.891 14.4781 137.207 13.7368C136.522 12.9956 135.692 12.6266 134.719 12.6266ZM142.546 22.3046V12.973H141.42L142.299 10.581H146.574C147.593 10.581 148.485 10.9597 149.247 11.7171C150.009 12.4745 150.389 13.3873 150.389 14.4554C150.389 15.6498 150.025 16.6661 149.299 17.5044C148.572 18.3428 147.68 18.7603 146.626 18.7603H145.131V22.3078H142.546V22.3046ZM145.131 12.973V16.3651H145.906C146.386 16.3651 146.798 16.2033 147.138 15.8828C147.479 15.5624 147.648 15.1643 147.648 14.6949C147.648 14.2256 147.482 13.8048 147.155 13.4714C146.827 13.138 146.415 12.973 145.922 12.973H145.131ZM151.868 22.3046V12.973H150.742L151.621 10.581H156.334L156.652 10.0469H159.01L157.936 12.973H154.453V22.3046H151.868Z" fill="#E52B0E"/>
<path fill-rule="evenodd" clip-rule="evenodd" d="M42.7769 28.091V31.8595H44.7613C45.4875 31.8595 45.9928 31.414 45.9928 30.7474C45.9928 30.259 45.7017 29.9389 45.2599 29.8334C45.5879 29.708 45.8188 29.4044 45.8188 29.0381C45.8188 28.4771 45.3971 28.091 44.5538 28.091H42.7769ZM43.4428 28.6256H44.3932C44.7814 28.6256 45.1361 28.6718 45.1361 29.1437C45.1361 29.5232 44.8784 29.6618 44.3698 29.6618H43.4395V28.6256H43.4428ZM43.4428 30.1402H44.4534C44.8952 30.1402 45.3068 30.2128 45.3068 30.7342C45.3068 31.216 44.9253 31.3216 44.4635 31.3216H43.4395V30.1402H43.4428ZM49.9684 30.4273H49.2857C49.2155 30.9817 48.9243 31.3909 48.2918 31.3909C47.4619 31.3909 47.144 30.6781 47.144 29.9785C47.144 29.279 47.4786 28.5695 48.2985 28.5695C48.8005 28.5695 49.1686 28.8401 49.2623 29.2955H49.9416C49.8111 28.421 49.0883 28.0085 48.3119 28.0085C47.1306 28.0085 46.458 28.9094 46.458 29.9785C46.458 31.1698 47.1808 31.9519 48.2784 31.9519C49.2523 31.9519 49.9015 31.3447 49.9751 30.4273H49.9684ZM53.3818 28.0943H50.5775V31.8628H53.4153V31.2952H51.2535V30.1831H53.2279V29.6486H51.2535V28.6487H53.3818V28.0943ZM52.8196 27.2H52.2139V27.7709H52.8196V27.2ZM51.732 27.2H51.1196V27.7709H51.732V27.2ZM59.0273 32.8V31.2919H58.5889V28.0943H56.0523V28.6751C56.0523 29.7113 55.8381 30.7804 55.5436 31.2886H55.1655V32.7967H55.8281V31.8595H58.3647V32.7967H59.0273V32.8ZM57.9062 31.2919H56.2765C56.5174 30.82 56.7182 29.8301 56.7182 28.8962V28.6685H57.9062V31.2919ZM62.5444 31.8628V28.0943H60.0011L59.9241 30.2788C59.8907 31.2358 59.6765 31.3942 59.3987 31.3942C59.3452 31.3942 59.2114 31.3843 59.131 31.3513V31.8595C59.2281 31.8925 59.3887 31.9288 59.5427 31.9288C60.1015 31.9288 60.5432 31.5097 60.5867 30.457L60.657 28.6619H61.8617V31.8595H62.5444V31.8628ZM66.2858 31.8628V28.0943H64.5122C63.6822 28.0943 63.2204 28.5134 63.2204 29.1371C63.2204 29.6123 63.3744 30.0379 64.0637 30.2425L62.8657 31.8628H63.719L64.8234 30.3085H65.5998V31.8628H66.2824H66.2858ZM65.6031 29.8037H64.5757C64.1373 29.8037 63.9098 29.5925 63.9098 29.1965C63.9098 28.8005 64.124 28.6355 64.5891 28.6355H65.6064V29.8037H65.6031ZM71.9547 30.4273H71.272C71.2017 30.9817 70.9106 31.3909 70.2781 31.3909C69.4482 31.3909 69.1303 30.6781 69.1303 29.9785C69.1303 29.279 69.4649 28.5695 70.2848 28.5695C70.7868 28.5695 71.1549 28.8401 71.2486 29.2955H71.9279C71.7974 28.421 71.0746 28.0085 70.2982 28.0085C69.1169 28.0085 68.4443 28.9094 68.4443 29.9785C68.4443 31.1698 69.1671 31.9519 70.2647 31.9519C71.2385 31.9519 71.8878 31.3447 71.9614 30.4273H71.9547ZM75.2643 28.0943H72.0986V28.6652H73.3401V31.8628H74.0228V28.6652H75.2643V28.0943ZM75.7228 28.0943V31.8628H76.4055V30.4141H77.5065C78.2929 30.4141 78.7714 29.9587 78.7714 29.246C78.7714 28.4573 78.2193 28.0976 77.4161 28.0976H75.7262L75.7228 28.0943ZM76.4055 28.6454H77.2957C77.7273 28.6454 78.0988 28.7741 78.0988 29.2592C78.0988 29.7047 77.7976 29.8796 77.3559 29.8796H76.4055V28.6454ZM81.037 28.0052C79.8457 28.0052 79.1563 28.8731 79.1563 29.9785C79.1563 31.1533 79.9126 31.9519 81.027 31.9519C82.1413 31.9519 82.8976 31.1533 82.8976 29.9785C82.8976 28.8038 82.138 28.0052 81.037 28.0052ZM81.027 28.5596C81.7498 28.5596 82.2083 29.1107 82.2083 29.9719C82.2083 30.8332 81.7498 31.3942 81.037 31.3942C80.3242 31.3942 79.8457 30.8431 79.8457 29.9653C79.8457 29.0876 80.3108 28.5563 81.027 28.5563V28.5596ZM83.5033 31.8628H84.2965L85.9697 28.9721V31.8628H86.6524V28.0943H85.8593L84.186 30.985V28.0943H83.5033V31.8628ZM90.2599 28.0943H87.0941V28.6652H88.3356V31.8628H89.0183V28.6652H90.2599V28.0943ZM93.5093 28.0943H90.7049V31.8628H93.5427V31.2952H91.3809V30.1831H93.3553V29.6486H91.3809V28.6487H93.5093V28.0943ZM97.2004 31.8628V28.0943H94.6571L94.5801 30.2788C94.5467 31.2358 94.3325 31.3942 94.0547 31.3942C94.0012 31.3942 93.8673 31.3843 93.787 31.3513V31.8595C93.8841 31.8925 94.0447 31.9288 94.1987 31.9288C94.7575 31.9288 95.1992 31.5097 95.2427 30.457L95.313 28.6619H96.5177V31.8595H97.2004V31.8628ZM101.062 30.6946C101.062 29.9521 100.587 29.5364 99.7337 29.5364H98.693V28.0976H98.0103V31.8661H99.7337C100.58 31.8661 101.062 31.4437 101.062 30.6979V30.6946ZM100.38 30.7111C100.38 31.117 100.155 31.3249 99.7069 31.3249H98.6963V30.0775H99.6969C100.125 30.0775 100.38 30.3151 100.38 30.7111ZM104.991 30.4306H104.308C104.238 30.985 103.947 31.3942 103.314 31.3942C102.484 31.3942 102.167 30.6814 102.167 29.9818C102.167 29.2823 102.501 28.5728 103.321 28.5728C103.823 28.5728 104.191 28.8434 104.285 29.2988H104.964C104.834 28.4243 104.111 28.0118 103.334 28.0118C102.153 28.0118 101.481 28.9127 101.481 29.9818C101.481 31.1731 102.203 31.9552 103.301 31.9552C104.275 31.9552 104.924 31.348 104.998 30.4306H104.991ZM108.301 28.0976H105.135V28.6685H106.376V31.8661H107.059V28.6685H108.301V28.0976ZM108.742 28.0976V31.8661H110.727C111.453 31.8661 111.958 31.4206 111.958 30.754C111.958 30.2656 111.667 29.9456 111.225 29.84C111.553 29.7146 111.784 29.411 111.784 29.0447C111.784 28.4837 111.363 28.0976 110.519 28.0976H108.742ZM109.408 28.6322H110.359C110.747 28.6322 111.102 28.6784 111.102 29.1503C111.102 29.5298 110.844 29.6684 110.335 29.6684H109.405V28.6322H109.408ZM109.408 30.1468H110.419C110.861 30.1468 111.272 30.2194 111.272 30.7408C111.272 31.2226 110.891 31.3282 110.429 31.3282H109.405V30.1468H109.408ZM114.374 28.0976H113.648L112.146 31.8661H112.852L113.233 30.8662H114.776L115.148 31.8661H115.88L114.378 28.0976H114.374ZM114.592 30.3679H113.404L114.01 28.784L114.589 30.3679H114.592ZM117.754 31.8661H118.548L120.221 28.9754V31.8661H120.903V28.0976H120.11L118.437 30.9883V28.0976H117.754V31.8661ZM123.246 28.0976V31.8661H123.929V30.4174H125.03C125.816 30.4174 126.295 29.9621 126.295 29.2493C126.295 28.4606 125.742 28.1009 124.939 28.1009H123.249L123.246 28.0976ZM123.929 28.6487H124.819C125.251 28.6487 125.622 28.7774 125.622 29.2625C125.622 29.708 125.321 29.8829 124.879 29.8829H123.929V28.6487ZM129.681 28.0976H126.877V31.8661H129.715V31.2985H127.553V30.1864H129.527V29.6519H127.553V28.652H129.681V28.0976ZM134.373 28.0976H133.423L132.372 31.0444L131.284 28.0976H130.327V31.8661H130.973V28.9622L132.084 31.8661H132.643L133.727 28.9622V31.8661H134.38V28.0976H134.373ZM136.866 28.0085C135.675 28.0085 134.985 28.8764 134.985 29.9818C134.985 31.1566 135.742 31.9552 136.856 31.9552C137.97 31.9552 138.727 31.1566 138.727 29.9818C138.727 28.8071 137.967 28.0085 136.866 28.0085ZM136.856 28.5629C137.579 28.5629 138.037 29.114 138.037 29.9752C138.037 30.8365 137.579 31.3975 136.866 31.3975C136.153 31.3975 135.675 30.8464 135.675 29.9687C135.675 29.0909 136.14 28.5596 136.856 28.5596V28.5629ZM142.485 28.0976H141.802V29.5958H140.018V28.0976H139.336V31.8661H140.018V30.1732H141.802V31.8661H142.485V28.0976ZM146.089 28.0976H142.923V28.6685H144.165V31.8661H144.847V28.6685H146.089V28.0976ZM147.812 28.0976L149.315 31.8661H148.582L148.211 30.8662H146.668L146.286 31.8661H145.58L147.083 28.0976H147.809H147.812ZM148.03 30.3679L147.451 28.784L146.845 30.3679H148.033H148.03Z" fill="#2B2C86"/>
</g>
<defs>
<clipPath id="clip0_3966_3174">
<rect width="159" height="40" fill="white"/>
</clipPath>
</defs>
</svg>
