<svg width="129" height="22" viewBox="0 0 129 22" fill="none" xmlns="http://www.w3.org/2000/svg">
<g opacity="0.8">
<path d="M35.5367 13.5556C35.5367 14.1863 35.3552 14.6987 34.9923 15.0928C34.6292 15.487 34.1037 15.7392 33.4155 15.8496L35.4913 18.3091V18.6284H33.2227L31.0107 15.9087H29.8423V18.6284H27.8345V10.8715H32.6101C33.5176 10.8715 34.2322 11.1001 34.754 11.5573C35.2758 12.0145 35.5367 12.6412 35.5367 13.4374V13.5556ZM33.4949 13.4256C33.4949 12.9368 33.1849 12.6925 32.5647 12.6925H29.8423V14.2888H32.5647C32.8672 14.2888 33.0979 14.2257 33.2567 14.0996C33.4155 13.9734 33.4949 13.7882 33.4949 13.5438V13.4256ZM43.7342 10.8715V12.6807H38.9813V13.8513H43.5074V15.6368H38.9813V16.8192H43.7342V18.6284H36.9735V10.8715H43.7342ZM53.0319 18.3091V18.6284H51.0469L50.4683 17.1976H46.9973L46.4187 18.6284H44.4336V18.3091L47.6211 10.8715H49.8445L53.0319 18.3091ZM49.7651 15.4357L48.7328 12.8699L47.7005 15.4357H49.7651ZM57.7115 10.8715C59.1332 10.8715 60.2033 11.1947 60.9217 11.8411C61.6477 12.4796 62.0107 13.4335 62.0107 14.7026V14.809C62.0107 17.3552 60.5776 18.6284 57.7115 18.6284H53.9001V10.8715H57.7115ZM57.7115 16.7601C58.498 16.7601 59.0689 16.6063 59.4244 16.2989C59.7873 15.9915 59.9688 15.5067 59.9688 14.8445V14.6789C59.9688 14.0246 59.7836 13.5399 59.4131 13.2245C59.0425 12.9013 58.4715 12.7398 57.7002 12.7398H55.9079V16.7601H57.7115ZM70.3709 10.8715V11.1908L67.2058 15.6131V18.6284H65.1981V15.6131L62.0219 11.1908V10.8715H64.1545L66.2079 13.804L68.2498 10.8715H70.3709ZM74.9467 18.7821C74.0319 18.7821 73.2267 18.6204 72.5308 18.2973C71.8423 17.9662 71.3094 17.5011 70.9315 16.902C70.5608 16.3029 70.3755 15.6013 70.3755 14.7972V14.7144C70.3755 13.9104 70.5608 13.2088 70.9315 12.6097C71.3094 12.0027 71.8423 11.5376 72.5308 11.2144C73.2267 10.8833 74.0319 10.7178 74.9467 10.7178C75.8015 10.7178 76.5692 10.8636 77.2491 11.1553C77.9298 11.4469 78.4594 11.849 78.8373 12.3614C79.2231 12.8738 79.4164 13.4531 79.4164 14.0996V14.1942H77.3626V14.0996C77.3626 13.666 77.1397 13.3191 76.6938 13.059C76.2552 12.7989 75.6729 12.6688 74.9467 12.6688C73.2603 12.6688 72.4174 13.3428 72.4174 14.6908V14.8327C72.4174 15.5027 72.6252 16.0033 73.0413 16.3344C73.4568 16.6655 74.092 16.831 74.9467 16.831C75.6953 16.831 76.2856 16.7049 76.7162 16.4526C77.1476 16.2004 77.3626 15.8535 77.3626 15.4121V15.3293H79.4164V15.4121C79.4164 16.0585 79.2231 16.6379 78.8373 17.1503C78.4594 17.6627 77.9298 18.0647 77.2491 18.3564C76.5692 18.6402 75.8015 18.7821 74.9467 18.7821ZM84.8048 18.7821C83.9045 18.7821 83.1104 18.6204 82.4225 18.2973C81.7419 17.9662 81.2162 17.5011 80.8456 16.902C80.4749 16.295 80.2896 15.5934 80.2896 14.7972V14.7144C80.2896 13.9104 80.4749 13.2088 80.8456 12.6097C81.2162 12.0027 81.7419 11.5376 82.4225 11.2144C83.1104 10.8833 83.9045 10.7178 84.8048 10.7178C85.7195 10.7178 86.5176 10.8833 87.1982 11.2144C87.8788 11.5376 88.4038 12.0027 88.7745 12.6097C89.1451 13.2088 89.3305 13.9104 89.3305 14.7144V14.7972C89.3305 15.6013 89.1451 16.3029 88.7745 16.902C88.4038 17.5011 87.8788 17.9662 87.1982 18.2973C86.5176 18.6204 85.7195 18.7821 84.8048 18.7821ZM84.8048 16.831C86.4608 16.831 87.2886 16.1649 87.2886 14.8327V14.6908C87.2886 14.0286 87.0768 13.5281 86.6534 13.1891C86.2373 12.8422 85.6213 12.6688 84.8048 12.6688C84.0028 12.6688 83.3901 12.8422 82.9666 13.1891C82.5432 13.5359 82.3315 14.0365 82.3315 14.6908V14.8327C82.3315 15.487 82.5393 15.9836 82.9554 16.3225C83.3716 16.6616 83.9876 16.831 84.8048 16.831ZM94.4003 10.8715C95.8223 10.8715 96.892 11.1947 97.6109 11.8411C98.3364 12.4796 98.6998 13.4335 98.6998 14.7026V14.809C98.6998 17.3552 97.2666 18.6284 94.4003 18.6284H90.5889V10.8715H94.4003ZM94.4003 16.7601C95.1871 16.7601 95.7583 16.6063 96.1131 16.2989C96.4765 15.9915 96.6579 15.5067 96.6579 14.8445V14.6789C96.6579 14.0246 96.4726 13.5399 96.1019 13.2245C95.7312 12.9013 95.1607 12.7398 94.3891 12.7398H92.5971V16.7601H94.4003ZM106.722 10.8715V12.6807H101.968V13.8513H106.495V15.6368H101.968V16.8192H106.722V18.6284H99.9608V10.8715H106.722ZM109.247 18.7821C108.915 18.7821 108.642 18.6757 108.431 18.4628C108.219 18.242 108.113 17.9622 108.113 17.6232C108.113 17.2843 108.219 17.0123 108.431 16.8074C108.642 16.5945 108.915 16.4881 109.247 16.4881C109.587 16.4881 109.86 16.5945 110.064 16.8074C110.276 17.0123 110.381 17.2843 110.381 17.6232C110.381 17.9701 110.276 18.25 110.064 18.4628C109.86 18.6757 109.587 18.7821 109.247 18.7821ZM119.649 13.5556C119.649 14.1863 119.467 14.6987 119.104 15.0928C118.742 15.487 118.216 15.7392 117.528 15.8496L119.604 18.3091V18.6284H117.335L115.123 15.9087H113.955V18.6284H111.947V10.8715H116.722C117.63 10.8715 118.345 11.1001 118.866 11.5573C119.388 12.0145 119.649 12.6412 119.649 13.4374V13.5556ZM117.607 13.4256C117.607 12.9368 117.297 12.6925 116.677 12.6925H113.955V14.2888H116.677C116.979 14.2888 117.21 14.2257 117.369 14.0996C117.528 13.9734 117.607 13.7882 117.607 13.5438V13.4256ZM124.772 18.7821C124.009 18.7821 123.339 18.6284 122.765 18.3209C122.19 18.0056 121.747 17.5602 121.437 16.9847C121.127 16.4093 120.972 15.7432 120.972 14.9864V10.8715H122.98V15.0219C122.98 15.6131 123.132 16.0624 123.434 16.3698C123.736 16.6773 124.183 16.831 124.772 16.831C125.37 16.831 125.82 16.6773 126.123 16.3698C126.425 16.0624 126.576 15.6131 126.576 15.0219V10.8715H128.584V14.9864C128.584 15.751 128.425 16.4211 128.107 16.9966C127.797 17.5641 127.355 18.0056 126.78 18.3209C126.206 18.6284 125.536 18.7821 124.772 18.7821Z" fill="#8C8E91"/>
<path d="M30.9285 1.56382C31.4243 1.56382 31.8165 1.68834 32.105 1.93738C32.3935 2.18173 32.5378 2.513 32.5378 2.93121V3.01579C32.5378 3.434 32.3935 3.76762 32.105 4.01667C31.8165 4.26101 31.4243 4.38318 30.9285 4.38318H28.8729V6.18758H28.1968V1.56382H30.9285ZM30.915 3.75587C31.2125 3.75587 31.4424 3.69243 31.6047 3.56556C31.7714 3.434 31.8548 3.25074 31.8548 3.01579V2.93121C31.8548 2.69626 31.7714 2.51535 31.6047 2.38848C31.4424 2.25691 31.2125 2.19113 30.915 2.19113H28.8729V3.75587H30.915ZM37.3673 6.08185V6.18758H36.6776L36.1502 5.01754H33.6483L33.1209 6.18758H32.4312V6.08185L34.5274 1.56382H35.2711L37.3673 6.08185ZM35.8594 4.38318L34.8992 2.26161L33.9391 4.38318H35.8594ZM41.8196 3.84045C42.0585 3.93443 42.2411 4.06366 42.3673 4.22811C42.4935 4.39258 42.5567 4.58288 42.5567 4.79904V4.88362C42.5567 5.32532 42.3515 5.66834 41.9413 5.91269C41.5356 6.15234 40.9564 6.27216 40.2036 6.27216C39.3877 6.27216 38.7656 6.11239 38.3374 5.79286C37.9136 5.46864 37.7018 4.99639 37.7018 4.37613V4.3127H38.3847V4.37613C38.3847 4.80374 38.5312 5.11857 38.8242 5.32062C39.1217 5.51798 39.586 5.61666 40.2171 5.61666C40.7806 5.61666 41.1976 5.55557 41.468 5.4334C41.7385 5.31122 41.8737 5.12091 41.8737 4.86248V4.78494C41.8737 4.56879 41.7723 4.41608 41.5695 4.3268C41.3666 4.23282 41.0217 4.18582 40.5349 4.18582H39.3516V3.55852H40.4876C40.9384 3.55852 41.2629 3.50918 41.4612 3.4105C41.6641 3.31182 41.7656 3.15206 41.7656 2.93121V2.85368C41.7656 2.37438 41.2313 2.13474 40.163 2.13474C39.568 2.13474 39.1262 2.23811 38.8378 2.44487C38.5492 2.65162 38.405 2.9641 38.405 3.38231V3.43869H37.7288V3.38231C37.7288 2.76674 37.9384 2.29685 38.3576 1.97262C38.7814 1.6437 39.3877 1.47923 40.1765 1.47923C40.8978 1.47923 41.4568 1.59671 41.8535 1.83165C42.2501 2.0666 42.4485 2.39553 42.4485 2.81844V2.91006C42.4485 3.32826 42.2388 3.6384 41.8196 3.84045ZM46.2216 1.56382C46.7174 1.56382 47.1096 1.68834 47.3981 1.93738C47.6866 2.18173 47.8308 2.513 47.8308 2.93121V3.01579C47.8308 3.434 47.6866 3.76762 47.3981 4.01667C47.1096 4.26101 46.7174 4.38318 46.2216 4.38318H44.166V6.18758H43.4898V1.56382H46.2216ZM46.208 3.75587C46.5056 3.75587 46.7355 3.69243 46.8977 3.56556C47.0645 3.434 47.1479 3.25074 47.1479 3.01579V2.93121C47.1479 2.69626 47.0645 2.51535 46.8977 2.38848C46.7355 2.25691 46.5056 2.19113 46.208 2.19113H44.166V3.75587H46.208ZM52.6603 6.08185V6.18758H51.9706L51.4432 5.01754H48.9414L48.414 6.18758H47.7243V6.08185L49.8204 1.56382H50.5642L52.6603 6.08185ZM51.1525 4.38318L50.1923 2.26161L49.2321 4.38318H51.1525ZM57.3363 1.56382V2.19113H54.0906V3.48803H56.0718C56.5812 3.48803 56.9756 3.60315 57.2551 3.83341C57.5391 4.05895 57.6811 4.37848 57.6811 4.79199V4.88362C57.6811 5.29243 57.5391 5.61195 57.2551 5.8422C56.9711 6.07246 56.5767 6.18758 56.0718 6.18758H53.4145V1.56382H57.3363ZM56.065 5.56027C56.3536 5.56027 56.5812 5.49918 56.748 5.37701C56.9193 5.25484 57.0049 5.09038 57.0049 4.88362V4.79199C57.0049 4.58054 56.9216 4.41608 56.7548 4.2986C56.588 4.17643 56.3581 4.11534 56.065 4.11534H54.0906V5.56027H56.065ZM61.0698 6.27216C60.5604 6.27216 60.1141 6.17583 59.731 5.98317C59.3478 5.79052 59.0525 5.51798 58.8452 5.16555C58.6378 4.81313 58.5341 4.39963 58.5341 3.92504V3.83341C58.5341 3.35881 58.6378 2.94531 58.8452 2.59288C59.0525 2.23577 59.3478 1.96088 59.731 1.76822C60.1141 1.57556 60.5604 1.47923 61.0698 1.47923C61.5791 1.47923 62.0232 1.57556 62.4018 1.76822C62.785 1.96088 63.0802 2.23577 63.2876 2.59288C63.4949 2.94531 63.5986 3.35881 63.5986 3.83341V3.92504C63.5986 4.39963 63.4949 4.81313 63.2876 5.16555C63.0802 5.51798 62.785 5.79052 62.4018 5.98317C62.0232 6.17583 61.5791 6.27216 61.0698 6.27216ZM61.0698 5.61666C61.6513 5.61666 62.1043 5.46864 62.4289 5.17261C62.7534 4.87657 62.9157 4.46541 62.9157 3.93913V3.82636C62.9157 3.29537 62.7534 2.88187 62.4289 2.58583C62.1043 2.2851 61.6513 2.13474 61.0698 2.13474C60.4883 2.13474 60.033 2.2851 59.7039 2.58583C59.3793 2.88187 59.2171 3.29537 59.2171 3.82636V3.93913C59.2171 4.46541 59.3793 4.87657 59.7039 5.17261C60.033 5.46864 60.4883 5.61666 61.0698 5.61666ZM63.9141 2.19113V1.56382H68.4245V2.19113H66.5039V6.18758H65.8344V2.19113H63.9141ZM73.5187 1.66954L71.4221 3.83341L73.4508 6.08185V6.18758H72.6666L70.8272 4.16468H69.8062V6.18758H69.1302V1.56382H69.8062V3.53032H70.814L72.7068 1.56382H73.5187V1.66954ZM79.0074 6.08185V6.18758H78.3175L77.7899 5.01754H75.2882L74.7606 6.18758H74.0714V6.08185L76.1674 1.56382H76.9114L79.0074 6.08185ZM77.499 4.38318L76.5394 2.26161L75.5791 4.38318H77.499ZM84.4525 6.27216C83.9341 6.27216 83.481 6.17818 83.0932 5.99022C82.706 5.79757 82.4059 5.52503 82.1942 5.17261C81.9871 4.82018 81.8829 4.40903 81.8829 3.93913V3.8193C81.8829 3.34941 81.9871 2.93825 82.1942 2.58583C82.4059 2.23341 82.706 1.96088 83.0932 1.76822C83.481 1.57556 83.9341 1.47923 84.4525 1.47923C84.9214 1.47923 85.3428 1.56147 85.7168 1.72593C86.0954 1.89039 86.3908 2.11829 86.6025 2.40963C86.8189 2.69626 86.927 3.01814 86.927 3.37526V3.43869H86.2444V3.37526C86.2444 3.14031 86.1679 2.92885 86.0142 2.7409C85.8612 2.55294 85.6469 2.40492 85.3718 2.29685C85.1014 2.18877 84.7954 2.13474 84.4525 2.13474C83.8483 2.13474 83.382 2.28041 83.0529 2.57174C82.7284 2.86308 82.5662 3.27658 82.5662 3.81226V3.94618C82.5662 4.48186 82.7284 4.89537 83.0529 5.1867C83.382 5.47334 83.8483 5.61666 84.4525 5.61666C84.7994 5.61666 85.1087 5.56496 85.3791 5.46159C85.6541 5.35352 85.8658 5.2055 86.0142 5.01754C86.1679 4.82958 86.2444 4.61813 86.2444 4.38318V4.3127H86.927V4.38318C86.927 4.7403 86.8189 5.06218 86.6025 5.34881C86.3908 5.63545 86.0954 5.861 85.7168 6.02547C85.3428 6.18993 84.9214 6.27216 84.4525 6.27216ZM92.1677 6.08185V6.18758H91.4778L90.9502 5.01754H88.4486L87.9209 6.18758H87.2311V6.08185L89.3277 1.56382H90.071L92.1677 6.08185ZM90.6593 4.38318L89.6997 2.26161L88.7394 4.38318H90.6593ZM93.5975 1.56382V5.22899L96.5391 1.56382H97.2151V6.18758H96.5391V2.5224L93.5975 6.18758H92.9215V1.56382H93.5975ZM95.0716 1.07747C94.6027 1.07747 94.2465 0.995241 94.0032 0.830777C93.7598 0.666314 93.6384 0.426668 93.6384 0.111839V0.0625H94.2333V0.111839C94.2333 0.23871 94.3052 0.337388 94.4497 0.407872C94.5941 0.473658 94.8012 0.50655 95.0716 0.50655C95.3334 0.50655 95.5313 0.473658 95.6665 0.407872C95.8063 0.337388 95.8762 0.23871 95.8762 0.111839V0.0625H96.5054V0.111839C96.5054 0.431367 96.3834 0.673363 96.1401 0.837824C95.9013 0.997592 95.5451 1.07747 95.0716 1.07747ZM97.9208 2.19113V1.56382H102.431V2.19113H100.51V6.18758H99.8413V2.19113H97.9208ZM107.051 6.08185V6.18758H106.361L105.834 5.01754H103.332L102.805 6.18758H102.115V6.08185L104.211 1.56382H104.955L107.051 6.08185ZM105.543 4.38318L104.583 2.26161L103.623 4.38318H105.543Z" fill="#8C8E91"/>
<path fill-rule="evenodd" clip-rule="evenodd" d="M0 1.59717C0.00984043 1.66093 0.0199792 1.7358 0.027492 1.80228C0.0410578 1.92235 0.0736105 2.13519 0.0998573 2.27526C0.126105 2.41534 0.157404 2.68821 0.169433 2.88164C0.181463 3.07508 0.206291 3.30975 0.224627 3.40313C0.242962 3.49652 0.274026 3.7096 0.293664 3.87662C0.313303 4.04367 0.340458 4.24014 0.354001 4.31322C0.391393 4.51522 0.44163 4.97265 0.459151 5.2708C0.467784 5.41754 0.494008 5.62492 0.517463 5.73165C0.540894 5.83837 0.571561 6.03484 0.585616 6.16824C0.599648 6.30165 0.631153 6.50903 0.655608 6.62909C0.680065 6.74916 0.706452 6.97291 0.714248 7.12636C0.722044 7.27974 0.748359 7.53625 0.772722 7.6963C0.797105 7.85642 0.833149 8.11292 0.852836 8.2663C0.872543 8.41975 0.903653 8.6271 0.921988 8.7272C0.940323 8.82723 0.967522 9.07281 0.982414 9.27294C0.997333 9.473 1.03063 9.76773 1.05643 9.92778C1.08226 10.0879 1.1171 10.3335 1.1339 10.4736C1.16458 10.7298 1.20568 10.9727 1.22345 11.003C1.22872 11.012 1.24526 11.2049 1.26024 11.4316C1.27521 11.6584 1.30655 11.9422 1.32989 12.0623C1.35325 12.1824 1.3797 12.3624 1.38873 12.4625C1.39776 12.5626 1.42517 12.7481 1.44967 12.8748C1.47416 13.0016 1.51022 13.3126 1.52981 13.5661C1.54938 13.8196 1.58107 14.1143 1.6002 14.221C1.61935 14.3277 1.65595 14.5788 1.68159 14.7789C1.70721 14.979 1.73795 15.181 1.74991 15.2279C1.76187 15.2747 1.78695 15.5097 1.80564 15.7502C1.82435 15.9907 1.85531 16.258 1.87449 16.3442C1.89367 16.4304 1.92664 16.6429 1.94776 16.8163C1.96889 16.9898 2.00021 17.1917 2.01736 17.2651C2.03451 17.3384 2.06017 17.5731 2.07437 17.7865C2.1015 18.1942 2.15627 18.6354 2.19185 18.7329C2.20341 18.7646 2.23764 18.8075 2.26792 18.8282C2.31738 18.862 3.25081 18.8658 11.4989 18.866C19.6298 18.8661 20.6809 18.862 20.7283 18.8297C20.8186 18.7679 20.8351 18.7015 20.866 18.2732C20.8825 18.0456 20.9119 17.7775 20.9313 17.6774C20.9507 17.5773 20.984 17.3481 21.0054 17.1681C21.0267 16.9879 21.0478 16.8343 21.0523 16.8265C21.0719 16.7925 21.1101 16.4665 21.1435 16.0471C21.1634 15.7975 21.1861 15.5759 21.1939 15.5547C21.2022 15.532 21.1864 15.4921 21.1553 15.4577L21.1026 15.3992L13.1468 15.3985C7.77953 15.398 5.17661 15.3898 5.14667 15.3731C5.09601 15.3448 5.08859 15.3058 5.05422 14.888C5.04049 14.7212 5.01431 14.5248 4.99607 14.4515C4.97781 14.378 4.94602 14.1614 4.92543 13.9701C4.90484 13.7787 4.87956 13.5986 4.86928 13.5698C4.84524 13.5029 4.82668 13.3337 4.79701 12.912C4.78389 12.7257 4.75859 12.5129 4.74079 12.439C4.72296 12.3652 4.69704 12.1921 4.68318 12.0544C4.66931 11.9165 4.63748 11.6982 4.61247 11.5692C4.58743 11.4402 4.5502 11.1163 4.52972 10.8495C4.50924 10.5827 4.47746 10.2935 4.45908 10.2068C4.44067 10.12 4.40488 9.88537 4.37952 9.68524C4.35418 9.48517 4.32305 9.27232 4.31039 9.2123C4.29771 9.15229 4.27574 8.93943 4.26155 8.7393C4.24735 8.53924 4.22562 8.32639 4.21327 8.26637C4.20089 8.20628 4.16573 7.97164 4.13513 7.74483C4.10453 7.51803 4.0683 7.29432 4.0546 7.24763C4.04089 7.20088 4.01335 6.94438 3.99336 6.67761C3.97336 6.4108 3.94708 6.13247 3.93493 6.05909C3.83369 5.44827 3.79476 5.10545 3.82436 5.08585C3.84143 5.07457 7.30558 5.0679 11.5224 5.07103L19.1895 5.07675L19.1968 5.16956C19.2008 5.22059 19.183 5.36248 19.1573 5.48487C19.1315 5.60727 19.1036 5.78925 19.0953 5.88931C19.087 5.98936 19.06 6.17491 19.0355 6.30165C19.011 6.42838 18.9806 6.68488 18.9679 6.87165C18.9552 7.05843 18.9339 7.27128 18.9204 7.34464C18.9069 7.418 18.8671 7.6899 18.832 7.94888C18.7782 8.34578 18.7611 8.42443 18.7229 8.44966C18.6874 8.47303 17.4713 8.48259 13.1415 8.49338C9.21084 8.50315 7.59828 8.51483 7.58035 8.53347C7.5628 8.55175 7.55317 9.06621 7.54882 10.2167C7.54361 11.5829 7.54803 11.8784 7.57388 11.9008C7.61655 11.9376 10.1398 11.9545 16.5069 11.9605C21.2107 11.9649 21.599 11.9622 21.6345 11.9252C21.6622 11.8964 21.6816 11.7979 21.7041 11.5735C21.7211 11.4021 21.7459 11.2019 21.7591 11.1284C21.7722 11.0551 21.8044 10.8259 21.8307 10.6191C21.857 10.4123 21.8882 10.2104 21.9001 10.1704C21.9119 10.1303 21.9381 9.87973 21.9582 9.61339C21.9784 9.34712 22.0098 9.07425 22.028 9.00702C22.0463 8.93985 22.0729 8.77024 22.0872 8.63013C22.1016 8.49009 22.123 8.32639 22.1349 8.2663C22.1833 8.0219 22.202 7.87443 22.2253 7.55082C22.2388 7.36403 22.2655 7.11295 22.2847 6.99292C22.3038 6.87286 22.3454 6.58907 22.3772 6.36229C22.4088 6.1355 22.4451 5.879 22.4578 5.79229C22.4706 5.70557 22.492 5.46544 22.5055 5.25869C22.519 5.05192 22.5448 4.83114 22.5628 4.76806C22.5808 4.70497 22.6128 4.50304 22.6339 4.31931C22.6551 4.13558 22.6875 3.92523 22.706 3.85186C22.7245 3.77849 22.75 3.56019 22.7626 3.36675C22.7753 3.17332 22.8058 2.88407 22.8305 2.72399C22.8553 2.5639 22.8916 2.31009 22.9113 2.15998C22.931 2.00986 22.9566 1.84296 22.9682 1.78911C22.9871 1.7016 22.9838 1.68739 22.9373 1.65566C22.8919 1.62461 21.6609 1.62015 13.1689 1.62032L3.45243 1.62049L3.43361 1.59717H0Z" fill="#B7B8BA"/>
</g>
</svg>
